<svg width="300" height="200" viewBox="0 0 300 200" xmlns="http://www.w3.org/2000/svg">
  <!-- Background -->
  <rect width="300" height="200" fill="#f8f9fa"/>
  
  <!-- Grid -->
  <defs>
    <pattern id="grid" width="20" height="20" patternUnits="userSpaceOnUse">
      <path d="M 20 0 L 0 0 0 20" fill="none" stroke="#e9ecef" stroke-width="1"/>
    </pattern>
  </defs>
  <rect width="300" height="200" fill="url(#grid)"/>
  
  <!-- Vector arrow markers -->
  <defs>
    <marker id="velocity-arrow" markerWidth="6" markerHeight="6" 
     refX="6" refY="3" orient="auto">
      <polygon points="0 0, 6 3, 0 6" fill="#4ecdc4"/>
    </marker>
    <marker id="acceleration-arrow" markerWidth="6" markerHeight="6" 
     refX="6" refY="3" orient="auto">
      <polygon points="0 0, 6 3, 0 6" fill="#ff6b6b"/>
    </marker>
  </defs>
  
  <!-- Bouncing ball (red) -->
  <circle cx="60" cy="80" r="12" fill="#ff6b6b"/>
  <line x1="60" y1="80" x2="100" y2="60" stroke="#4ecdc4" stroke-width="2" marker-end="url(#velocity-arrow)"/>
  <line x1="60" y1="80" x2="50" y2="110" stroke="#ff6b6b" stroke-width="2" marker-end="url(#acceleration-arrow)"/>
  
  <!-- Floating particle (cyan) -->
  <circle cx="150" cy="50" r="8" fill="#4ecdc4"/>
  <line x1="150" y1="50" x2="130" y2="70" stroke="#4ecdc4" stroke-width="2" marker-end="url(#velocity-arrow)"/>
  
  <!-- Heavy dot (purple) -->
  <circle cx="220" cy="120" r="15" fill="#9c27b0"/>
  <line x1="220" y1="120" x2="190" y2="100" stroke="#4ecdc4" stroke-width="2" marker-end="url(#velocity-arrow)"/>
  <line x1="220" y1="120" x2="240" y2="140" stroke="#ff6b6b" stroke-width="2" marker-end="url(#acceleration-arrow)"/>
  
  <!-- Light, fast dot (orange) -->
  <circle cx="240" cy="60" r="6" fill="#ffa726"/>
  <line x1="240" y1="60" x2="200" y2="80" stroke="#4ecdc4" stroke-width="2" marker-end="url(#velocity-arrow)"/>
  
  <!-- Mouse-controlled dot (blue) -->
  <circle cx="120" cy="140" r="10" fill="#45b7d1"/>
  <line x1="120" y1="140" x2="140" y2="120" stroke="#4ecdc4" stroke-width="2" marker-end="url(#velocity-arrow)"/>
  
  <!-- Mouse cursor indicator -->
  <circle cx="140" cy="120" r="3" fill="#333"/>
  <line x1="120" y1="140" x2="140" y2="120" stroke="#45b7d1" stroke-width="1" stroke-dasharray="3,3"/>
  
  <!-- Motion trails -->
  <circle cx="45" cy="85" r="3" fill="#ff6b6b" opacity="0.3"/>
  <circle cx="30" cy="90" r="2" fill="#ff6b6b" opacity="0.2"/>
  <circle cx="15" cy="95" r="1" fill="#ff6b6b" opacity="0.1"/>
  
  <circle cx="165" cy="45" r="2" fill="#4ecdc4" opacity="0.3"/>
  <circle cx="180" cy="40" r="1" fill="#4ecdc4" opacity="0.2"/>
  
  <!-- Legend -->
  <g transform="translate(20, 160)">
    <circle cx="5" cy="5" r="3" fill="#4ecdc4"/>
    <text x="12" y="9" font-family="Arial" font-size="10" fill="#666">Velocity</text>
    
    <circle cx="60" cy="5" r="3" fill="#ff6b6b"/>
    <text x="67" y="9" font-family="Arial" font-size="10" fill="#666">Acceleration</text>
    
    <circle cx="130" cy="5" r="3" fill="#333"/>
    <text x="137" y="9" font-family="Arial" font-size="10" fill="#666">Mouse</text>
  </g>
  
  <!-- Boundary walls -->
  <rect x="0" y="0" width="300" height="200" fill="none" stroke="#999" stroke-width="2"/>
  
  <!-- Title -->
  <text x="150" y="25" text-anchor="middle" font-family="Arial" font-size="16" font-weight="bold" fill="#333">Dot Physics</text>
  <text x="150" y="40" text-anchor="middle" font-family="Arial" font-size="12" fill="#666">Position • Velocity • Acceleration</text>
</svg>
